<?xml version="1.0" encoding="UTF-8"?>
<svg width="46px" height="34px" viewBox="0 0 46 34" version="1.1" xmlns="http://www.w3.org/2000/svg" xmlns:xlink="http://www.w3.org/1999/xlink">
    <!-- Generator: Sketch 43.1 (39012) - http://www.bohemiancoding.com/sketch -->
    <title>Delete Icon</title>
    <desc>Created with Sketch.</desc>
    <defs></defs>
    <g id="半浮层收银台" stroke="none" stroke-width="1" fill="none" fill-rule="evenodd">
        <g id="无确认键盘样式" transform="translate(-675.000000, -2193.000000)" fill="#000000">
            <g id="Phone-Pad---Light-Copy-2" transform="translate(70.000000, 1828.000000)">
                <g id="Phone-Pad---Light">
                    <g id="Delete-Key" transform="translate(605.000000, 365.000000)">
                        <g id="Group">
                            <path d="M28,18.645 L33.913,24.558 L35.558,22.913 L29.645,17 L35.558,11.087 L33.913,9.442 L28,15.355 L22.087,9.442 L20.442,11.087 L26.355,17 L20.442,22.913 L22.087,24.558 L28,18.645 L28,18.645 Z M37.928,3 C40.724,3 43,5.243 43,8 L43,26 C43,28.757 40.725,31 37.928,31 L19,31 C17.626,31 16.292,30.439 15.341,29.462 L3.583,17.736 L3.564,17.716 L3.545,17.697 C3.302,17.456 3.251,17.184 3.251,16.999 C3.251,16.814 3.302,16.542 3.545,16.301 L3.564,16.282 L3.583,16.262 L15.341,4.537 C16.293,3.559 17.626,2.998 19,2.998 L37.928,2.998 L37.928,3 Z M37.928,0 L19.809,0 C17.618,0 15.521,0.883 14,2.446 L1.433,14.172 C-0.144,15.734 -0.144,18.267 1.433,19.829 L14,31.555 C15.521,33.118 17.618,34.001 19.809,34.001 L37.928,34.001 C42.386,34.001 46,30.419 46,26.001 L46,8.001 C46,3.582 42.386,0 37.928,0 L37.928,0 L37.928,0 Z" id="Delete-Icon"></path>
                        </g>
                    </g>
                </g>
            </g>
        </g>
    </g>
</svg>